# xmcd
#
# Track frame offsets:
#	150
#	17984
#	32737
#	39349
#	56760
#	74540
#	98696
#	114636
#	131470
#	151593
#	164919
#	178861
#	191338
#	207798
#	226526
#	248180
#
# Disc length: 3928 seconds
#
# Revision: 1
# Processed by: cddbd v1.5.2PL0 Copyright (c) Steve Scherf et al.
# Submitted via: audiograbber 1.83.01
#
DISCID=d30f5610
DTITLE=Wiglaf Droste and Das Spardosenterzett - Wolken ziehn
DYEAR=2002
DGENRE=Jazz
TTITLE0=Aspirin-Tablette
TTITLE1=Basta, Berlusconi!
TTITLE2=Die Geschichte des Rubio
TTITLE3=El Rubio
TTITLE4=Mega cooler Act
TTITLE5=Bis die Flut kommt
TTITLE6=Diät ist Mord
TTITLE7=Die armen Fische
TTITLE8=Waschbrettkopf
TTITLE9=Wenn ich euch nur erheiter
TTITLE10=Bitteschön
TTITLE11=Ausgeplündert werden in Paris
TTITLE12=Jazz und Musik
TTITLE13=Hey warte
TTITLE14=Wolken ziehn
TTITLE15=Du kleine Löterin
EXTD=
EXTT0=
EXTT1=
EXTT2=
EXTT3=
EXTT4=
EXTT5=
EXTT6=
EXTT7=
EXTT8=
EXTT9=
EXTT10=
EXTT11=
EXTT12=
EXTT13=
EXTT14=
EXTT15=
PLAYORDER=
